<?xml version="1.0" encoding="UTF-8" standalone="no"?>
<!-- Created with Inkscape (http://www.inkscape.org/) -->

<svg
   xmlns:osb="http://www.openswatchbook.org/uri/2009/osb"
   xmlns:dc="http://purl.org/dc/elements/1.1/"
   xmlns:cc="http://creativecommons.org/ns#"
   xmlns:rdf="http://www.w3.org/1999/02/22-rdf-syntax-ns#"
   xmlns:svg="http://www.w3.org/2000/svg"
   xmlns="http://www.w3.org/2000/svg"
   xmlns:xlink="http://www.w3.org/1999/xlink"
   xmlns:sodipodi="http://sodipodi.sourceforge.net/DTD/sodipodi-0.dtd"
   xmlns:inkscape="http://www.inkscape.org/namespaces/inkscape"
   width="210mm"
   height="297mm"
   viewBox="0 0 210 297"
   version="1.1"
   id="svg4776"
   inkscape:version="0.92.1 r15371"
   sodipodi:docname="dibujo.svg">
  <defs
     id="defs4770">
    <linearGradient
       inkscape:collect="always"
       id="linearGradient10136">
      <stop
         style="stop-color:#000000;stop-opacity:1;"
         offset="0"
         id="stop10132" />
      <stop
         style="stop-color:#000000;stop-opacity:0;"
         offset="1"
         id="stop10134" />
    </linearGradient>
    <linearGradient
       inkscape:collect="always"
       id="linearGradient10118-9">
      <stop
         style="stop-color:#000000;stop-opacity:1;"
         offset="0"
         id="stop10114" />
      <stop
         style="stop-color:#000000;stop-opacity:0;"
         offset="1"
         id="stop10116" />
    </linearGradient>
    <marker
       inkscape:stockid="Arrow2Send"
       orient="auto"
       refY="0.0"
       refX="0.0"
       id="Arrow2Send"
       style="overflow:visible;"
       inkscape:isstock="true">
      <path
         id="path9855"
         style="fill-rule:evenodd;stroke-width:0.62500000;stroke-linejoin:round;"
         d="M 8.7185878,4.0337352 L -2.2072895,0.016013256 L 8.7185884,-4.0017078 C 6.9730900,-1.6296469 6.9831476,1.6157441 8.7185878,4.0337352 z "
         transform="scale(0.3) rotate(180) translate(-2.3,0)" />
    </marker>
    <marker
       inkscape:stockid="Arrow1Lend"
       orient="auto"
       refY="0.0"
       refX="0.0"
       id="Arrow1Lend"
       style="overflow:visible;"
       inkscape:isstock="true">
      <path
         id="path9825"
         d="M 0.0,0.0 L 5.0,-5.0 L -12.5,0.0 L 5.0,5.0 L 0.0,0.0 z "
         style="fill-rule:evenodd;stroke:#000000;stroke-width:1.0pt;"
         transform="scale(0.8) rotate(180) translate(12.5,0)" />
    </marker>
    <linearGradient
       id="linearGradient9288"
       osb:paint="solid">
      <stop
         style="stop-color:#000000;stop-opacity:1;"
         offset="0"
         id="stop9286" />
    </linearGradient>
    <linearGradient
       id="linearGradient9256"
       osb:paint="solid">
      <stop
         style="stop-color:#000000;stop-opacity:0.95979899;"
         offset="0"
         id="stop9254" />
    </linearGradient>
    <linearGradient
       inkscape:collect="always"
       xlink:href="#linearGradient10118-9"
       id="linearGradient10130"
       x1="266.07422"
       y1="431.61432"
       x2="616.64453"
       y2="431.61432"
       gradientUnits="userSpaceOnUse" />
    <linearGradient
       inkscape:collect="always"
       xlink:href="#linearGradient10136"
       id="linearGradient10138"
       x1="266.57422"
       y1="431.61431"
       x2="616.14453"
       y2="431.61431"
       gradientUnits="userSpaceOnUse" />
  </defs>
  <sodipodi:namedview
     id="base"
     pagecolor="#ffffff"
     bordercolor="#666666"
     borderopacity="1.0"
     inkscape:pageopacity="0.0"
     inkscape:pageshadow="2"
     inkscape:zoom="0.7"
     inkscape:cx="347.85875"
     inkscape:cy="565.98155"
     inkscape:document-units="mm"
     inkscape:current-layer="layer1"
     showgrid="false"
     inkscape:snap-page="true"
     inkscape:snap-midpoints="true"
     inkscape:window-width="1920"
     inkscape:window-height="1017"
     inkscape:window-x="-8"
     inkscape:window-y="-8"
     inkscape:window-maximized="1" />
  <metadata
     id="metadata4773">
    <rdf:RDF>
      <cc:Work
         rdf:about="">
        <dc:format>image/svg+xml</dc:format>
        <dc:type
           rdf:resource="http://purl.org/dc/dcmitype/StillImage" />
        <dc:title></dc:title>
      </cc:Work>
    </rdf:RDF>
  </metadata>
  <g
     inkscape:label="Capa 1"
     inkscape:groupmode="layer"
     id="layer1">
    <path
       style="fill:#000000;fill-opacity:0;stroke-width:0.26458332"
       id="path4780"
       d="m 71.462627,187.28049 c -0.684755,-1.52893 -1.348568,-3.07087 -1.961264,-4.63043 -0.613365,-1.52635 -1.108218,-3.09445 -1.746657,-4.61058 -0.568185,-1.47681 -1.0961,-2.96526 -1.605378,-4.46317 -0.590238,-1.5411 -1.032449,-3.13468 -1.364488,-4.7499 -0.285528,-1.39816 -0.329317,-2.82607 -0.365559,-4.24759 -0.02416,-1.5643 7.94e-4,-3.12881 0.0057,-4.69318 -0.05939,-1.80438 0.07378,-3.5971 0.319124,-5.38275 0.197901,-1.4047 0.714333,-2.72901 1.304777,-4.00922 0.531884,-1.17734 0.927423,-2.41337 1.35051,-3.63345 0.493718,-1.33164 1.049338,-2.6396 1.566048,-3.96259 0.523928,-1.36912 1.163037,-2.69194 1.801196,-4.01078 0.615095,-1.24842 1.236988,-2.49098 1.932114,-3.69705 0.66502,-1.19408 1.427845,-2.32885 2.164792,-3.47881 0.823968,-1.33647 1.672828,-2.65754 2.495759,-3.99478 0.76423,-1.25399 1.503868,-2.52091 2.239724,-3.79148 0.522904,-0.95114 1.232625,-1.75049 2.001525,-2.50446 0.511758,-0.54138 1.078392,-1.01803 1.679067,-1.45645 0.761858,-0.63924 1.599692,-1.17945 2.429389,-1.72509 0.795864,-0.51339 1.5768,-1.04225 2.303798,-1.64963 0.742593,-0.66899 1.473764,-1.34472 2.252298,-1.97341 2.32134,-1.73428 4.951177,-3.0023 7.473217,-4.41845 0.173855,-0.0961 0.693536,-0.3876 0.52157,-0.28819 -9.71881,5.61831 -0.610595,0.19916 2.582611,-1.4265 1.41699,-0.69689 -0.3679,0.19107 1.03041,-0.53713 0.16438,-0.0856 0.65947,-0.33777 0.49937,-0.24442 -1.45128,0.84631 -2.913818,1.67319 -4.374067,2.50393 -0.1466,0.0834 0.287121,-0.17714 0.432978,-0.26183 1.737139,-1.00867 3.477289,-2.01215 5.215929,-3.01822 -9.208452,5.51891 -2.04226,0.88798 1.23368,-0.69287 0.43539,-0.2101 0.91569,-0.32797 1.36511,-0.50506 1.69392,-0.97075 4.18996,-2.39885 -3.71622,2.13911 0,0 5.23953,-2.01814 5.23953,-2.01814 v 0 c -1.88307,1.08563 -3.86055,2.43971 -5.93423,3.33733 -0.4541,0.1693 -0.88793,0.3429 -1.31663,0.57031 -0.13584,0.0721 -0.537663,0.29864 -0.40482,0.22118 1.19653,-0.6977 11.70365,-6.77877 -0.822808,0.4727 9.890228,-5.73683 0.517581,-0.1668 -2.809457,1.536 -0.80605,0.43678 -0.181792,0.0974 -1.01659,0.55435 -0.174842,0.0957 -0.696907,0.38715 -0.524785,0.28664 9.20491,-5.3754 1.635546,-0.8809 -1.55679,0.88239 -1.73514,0.93308 -4.483885,2.52075 3.365513,-1.99207 0.3003,-0.17265 -0.593463,0.35749 -0.886809,0.5417 -0.135787,0.0853 -0.266382,0.17854 -0.399574,0.26781 -0.774649,0.62988 -1.589579,1.21914 -2.236811,1.98835 -0.769612,0.52039 0.03493,-0.0571 -0.67941,0.56334 -0.501195,0.43534 -1.11125,0.71998 -1.625029,1.13796 -0.840139,0.50266 -1.640469,1.06368 -2.42412,1.64427 -0.544846,0.50645 -1.218676,0.84697 -1.717574,1.40826 -0.725073,0.77205 -1.56582,1.43388 -2.075635,2.39134 -0.768993,1.2606 -1.478728,2.55486 -2.261444,3.80779 -0.810401,1.34299 -1.67027,2.65499 -2.472246,4.00104 -0.744162,1.13749 -1.49429,2.27425 -2.1726,3.45216 -0.699365,1.19991 -1.356735,2.41927 -1.961692,3.66994 -0.654158,1.29509 -1.257715,2.62081 -1.8123,3.96083 -0.50704,1.32159 -1.055635,2.62652 -1.572199,3.94352 -0.427546,1.23392 -0.832126,2.47806 -1.315633,3.69 -0.624372,1.22294 -1.153089,2.51102 -1.406189,3.86572 -0.258866,1.76333 -0.438364,3.53105 -0.361273,5.31728 -2.64e-4,1.55606 0.0072,3.11213 0.01685,4.66815 0.01995,1.39327 0.0591,2.79196 0.306541,4.16701 0.309282,1.5954 0.738272,3.17045 1.323517,4.68785 0.513004,1.4827 1.035273,2.95973 1.595226,4.42549 0.640604,1.52185 1.126919,3.09874 1.73957,4.63184 0.595751,1.544 1.244525,3.07794 1.992532,4.55366 0,0 -4.879713,2.77843 -4.879713,2.77843 z"
       inkscape:connector-curvature="0" />
    <path
       style="fill:#8c0000;fill-opacity:0;stroke-width:0.26458332"
       id="path5587"
       d="m 86.924768,113.78573 c 4.532826,-0.73353 8.985967,-1.88066 13.462772,-2.88829 5.692,-1.30888 11.37042,-2.72228 16.9242,-4.54248 3.1302,-1.0259 5.46933,-1.95803 8.54197,-3.12849 3.9332,-1.51258 7.74206,-3.327586 11.43366,-5.356342 1.11738,-0.614064 2.24132,-1.220415 3.31593,-1.906564 0.39185,-0.250198 -1.61052,0.901991 -1.26154,0.594821 0.85128,-0.749285 1.86197,-1.29517 2.79295,-1.942754 3.32783,-2.484257 6.41548,-5.289097 9.16176,-8.405982 1.67291,-1.898663 2.01361,-2.429687 3.51998,-4.43032 2.07799,-2.83096 3.77165,-5.914369 4.98462,-9.211247 0.71176,-1.934585 0.91664,-2.846689 1.45918,-4.827143 1.09726,-4.531447 1.43668,-9.196379 1.47803,-13.84492 -0.0422,-2.769532 -0.24924,-5.542741 -1.05704,-8.202171 -0.32144,-0.720468 -0.13667,-0.402421 -0.52978,-0.967978 0,0 4.81977,-2.817802 4.81977,-2.817802 v 0 c 0.4249,0.687432 0.23001,0.311774 0.56638,1.136274 0.76014,2.748823 0.89365,5.601301 0.9439,8.441132 -0.0565,4.697455 -0.40788,9.407064 -1.47672,13.994214 -0.52154,1.942153 -0.75964,2.986323 -1.44088,4.886222 -1.19833,3.342029 -2.87046,6.481802 -4.96222,9.35088 -0.55866,0.749949 -1.0978,1.514838 -1.67597,2.249845 -3.19197,4.057843 -6.92021,7.666993 -11.03899,10.777278 -4.89078,3.44287 -2.49819,1.86404 -10.20428,6.391511 -4.7043,2.763856 -9.60564,5.190656 -14.70879,7.130676 -3.24883,1.2242 -5.23439,2.01514 -8.54622,3.08967 -5.6102,1.82024 -11.33791,3.25213 -17.073078,4.61359 -4.625462,1.08606 -9.230948,2.26036 -13.887926,3.20692 0,0 4.458332,-3.39055 4.458332,-3.39055 z"
       inkscape:connector-curvature="0" />
    <path
       style="fill:#8c0000;fill-opacity:0;stroke-width:0.26458332"
       id="path5591"
       d="m 128.80846,51.19824 c -2.33297,0.291068 -4.62795,0.835924 -6.91498,1.3703 -3.45446,0.630095 -6.88571,1.332529 -10.29152,2.189494 -4.61529,1.160158 -9.11547,2.719932 -13.594802,4.314486 -3.005299,1.06377 -5.897949,2.424033 -8.703474,3.932364 -3.057858,1.706206 1.866659,-1.102674 2.815405,-1.626729 0.312923,-0.172847 -0.607594,0.376949 -0.907344,0.571748 -1.042027,0.677186 -2.036876,1.412227 -3.033077,2.154206 -2.678628,1.877658 -5.02684,4.147206 -7.274531,6.509663 -2.924834,3.123171 -5.538721,6.507612 -8.048625,9.966653 -2.459969,3.461311 -4.345641,7.28127 -6.147935,11.113053 -1.763247,3.862033 -3.392522,7.779252 -4.872982,11.757832 -1.357172,3.31959 -2.323909,6.75938 -3.144147,10.24331 -0.699383,2.68876 -1.291608,5.38925 -1.598996,8.1514 -0.220077,2.39225 -0.231156,4.79682 -0.239818,7.19713 -0.0087,2.58223 -0.03545,5.16167 0.134146,7.73924 0.298696,3.94582 1.148948,7.81796 1.932337,11.68809 0.877194,4.88073 2.064885,9.69471 3.246768,14.50794 0.998583,4.05209 2.401359,7.98415 3.74977,11.92803 0.998268,2.98293 2.163406,5.90472 3.727747,8.63683 1.194136,1.93311 2.792769,3.51539 4.519112,4.96743 1.585894,1.35402 3.189719,2.68249 4.843656,3.95252 1.461648,1.17563 2.941317,2.33651 4.532966,3.33218 1.068845,0.66565 2.173158,1.27448 3.280719,1.87303 0.14569,0.0855 0.291381,0.17095 0.437071,0.25642 0,0 -4.687536,3.04062 -4.687536,3.04062 v 0 c -0.142489,-0.0829 -0.284977,-0.16586 -0.427466,-0.2488 -1.095788,-0.62799 -2.210295,-1.2263 -3.260672,-1.92958 -1.57013,-1.04772 -3.061364,-2.20824 -4.534919,-3.38677 -1.647965,-1.28819 -3.250988,-2.62692 -4.843997,-3.98253 -1.753361,-1.51311 -3.389476,-3.14464 -4.585059,-5.15032 -1.563847,-2.77481 -2.671149,-5.76294 -3.693623,-8.77368 -1.336339,-3.96979 -2.714123,-7.93296 -3.697899,-12.00944 -1.169683,-4.82083 -2.337721,-9.64348 -3.267128,-14.51803 -0.820557,-3.87025 -1.717595,-7.73734 -2.089245,-11.68404 -0.214807,-2.58224 -0.212325,-5.1667 -0.192675,-7.75684 0.0078,-2.41881 0.0035,-4.8419 0.22288,-7.25312 0.300141,-2.79622 0.876257,-5.52984 1.627645,-8.24031 0.838401,-3.50915 1.769713,-6.99085 3.167451,-10.32806 1.491875,-3.9892 3.123938,-7.920197 4.871257,-11.8045 1.798439,-3.857935 3.672398,-7.709546 6.115847,-11.208679 2.50209,-3.461271 5.085178,-6.863765 7.980127,-10.011119 2.201235,-2.377186 4.497215,-4.680106 7.150602,-6.559446 3.283418,-2.497106 6.742232,-4.714571 10.459498,-6.544607 2.783935,-1.446022 5.647976,-2.743901 8.617766,-3.763446 4.49987,-1.572776 9.01697,-3.116585 13.64129,-4.28842 3.43811,-0.867444 6.90674,-1.562679 10.38472,-2.248109 2.3387,-0.540316 4.68115,-1.068443 7.0535,-1.441836 0,0 -4.45983,3.364442 -4.45983,3.364442 z"
       inkscape:connector-curvature="0" />
    <text
       xml:space="preserve"
       style="font-style:normal;font-weight:normal;font-size:10.58333302px;line-height:1.25;font-family:sans-serif;letter-spacing:0px;word-spacing:0px;fill:#000000;fill-opacity:1;stroke:none;stroke-width:0.26458332"
       x="20.410715"
       y="98.184517"
       id="text5603"><tspan
         sodipodi:role="line"
         id="tspan5601"
         x="20.410715"
         y="107.84001"
         style="stroke-width:0.26458332"></tspan></text>
    <flowRoot
       xml:space="preserve"
       id="flowRoot5613"
       style="fill:black;fill-opacity:1;stroke:none;font-family:sans-serif;font-style:normal;font-weight:normal;font-size:40px;line-height:1.25;letter-spacing:0px;word-spacing:0px"><flowRegion
         id="flowRegion5615"><rect
           id="rect5617"
           width="295.71429"
           height="97.14286"
           x="192.85715"
           y="402.51968" /></flowRegion><flowPara
         id="flowPara5619"></flowPara></flowRoot>    <flowRoot
       xml:space="preserve"
       id="flowRoot5621"
       style="font-style:normal;font-weight:normal;font-size:40px;line-height:1.25;font-family:sans-serif;letter-spacing:0px;word-spacing:0px;fill:#000000;fill-opacity:0;opacity:1;paint-order:stroke fill markers;stroke:#000000;stroke-opacity:1;fill-rule:evenodd;stroke-width:1.00313305;stroke-miterlimit:4;stroke-dasharray:none"
       transform="matrix(0.39109069,0,0,0.71376818,-57.536098,-179.13354)"><flowRegion
         id="flowRegion5623"
         style="fill:#000000;fill-opacity:0;paint-order:stroke fill markers;stroke:#000000;stroke-opacity:1;fill-rule:evenodd;stroke-width:1.00313305;stroke-miterlimit:4;stroke-dasharray:none"><rect
           id="rect5625"
           width="487.14288"
           height="142.85715"
           x="265.71429"
           y="409.66254"
           style="fill:#000000;fill-opacity:0;paint-order:stroke fill markers;stroke:#000000;stroke-opacity:1;fill-rule:evenodd;stroke-width:1.00313305;stroke-miterlimit:4;stroke-dasharray:none" /></flowRegion><flowPara
         id="flowPara5627"
         style="fill-opacity:0;fill:#000000;paint-order:stroke fill markers;stroke:#000000;stroke-opacity:1;fill-rule:evenodd;stroke-width:1.00313305;stroke-miterlimit:4;stroke-dasharray:none">JAVIER SERRANO</flowPara></flowRoot>  </g>
</svg>
